<?xml version="1.0" encoding="utf-8"?>
<!-- Designed by Vexels.com - 2016 All Rights Reserved - https://vexels.com/terms-and-conditions/  -->

<svg version="1.1" id="Layer_1" xmlns="http://www.w3.org/2000/svg" xmlns:xlink="http://www.w3.org/1999/xlink" x="0px" y="0px"
	 width="1200px" height="1200px" viewBox="0 0 1200 1200" enable-background="new 0 0 1200 1200" xml:space="preserve">
<g>
	<g>
		<g>
			<path fill="#87CEDB" d="M905.072,545.349c0,236.108-191.4,427.536-427.536,427.536C241.419,972.885,50,781.457,50,545.349
				c0-236.136,191.419-427.545,427.536-427.545C713.672,117.804,905.072,309.213,905.072,545.349z"/>
			<g>
				<defs>
					<path id="SVGID_1_" d="M905.072,545.349c0,236.108-191.4,427.536-427.536,427.536C241.419,972.885,50,781.457,50,545.349
						c0-236.136,191.419-427.545,427.536-427.545C713.672,117.804,905.072,309.213,905.072,545.349z"/>
				</defs>
				<clipPath id="SVGID_2_">
					<use xlink:href="#SVGID_1_"  overflow="visible"/>
				</clipPath>
				<linearGradient id="SVGID_3_" gradientUnits="userSpaceOnUse" x1="940.7531" y1="943.9073" x2="522.7311" y2="597.5458">
					<stop  offset="0" style="stop-color:#FFFFFF"/>
					<stop  offset="0.0718" style="stop-color:#DFDFDF"/>
					<stop  offset="0.2156" style="stop-color:#A5A5A5"/>
					<stop  offset="0.3593" style="stop-color:#727272"/>
					<stop  offset="0.4998" style="stop-color:#494949"/>
					<stop  offset="0.6362" style="stop-color:#292929"/>
					<stop  offset="0.7674" style="stop-color:#121212"/>
					<stop  offset="0.8912" style="stop-color:#050505"/>
					<stop  offset="1" style="stop-color:#000000"/>
				</linearGradient>
				<polygon opacity="0.5" clip-path="url(#SVGID_2_)" fill="url(#SVGID_3_)" points="217.199,737.316 560.821,1080.938 
					965.054,1082.196 1150,749.524 975.285,562.691 730.159,317.583 707.918,334.463 637.723,265.418 561.972,350.213 
					523.997,398.544 479.118,426.162 534.354,483.699 525.148,506.718 486.023,464.136 420.826,527.432 334.898,446.106 
					308.826,565.783 194.886,589.572 288.096,697.741 				"/>
			</g>
		</g>
		<g>
			<path fill="#FFFFFF" d="M476.673,422.296c0,0-0.162,5.146,9.493,5.489l25.262,3.524c0,0,7.391,0.813,11.741,9.975
				c0,0,6.923,10.775,3.867,15.944l-19.958,29.272c0,0-4.352,4.517,0.342,10.617l21.217,20.453c0,0,6.761,3.695,11.112-1.304
				l19.617-15.436c0,0,7.408-7.237,19.005-1.6c0,0,12.388,4.009,13.827,12.226l4.19,30.234c0,0,0,7.264,9.331,6.94h26.557
				c0,0,8.037-1.456,8.523-7.893l3.38-27.348c0,0-0.324-7.902,9.331-12.398c0,0,11.903-8.527,20.606-2.094l24.13,17.863
				c0,0,4.513,4.837,12.712-0.962l17.872-17.872c0,0,5.952-6.59-0.162-13.184l-16.74-22.368c0,0-4.998-5.479,0.162-16.592
				c0,0,3.704-13.341,13.522-14.312l27.492-4.028c0,0,8.54-0.161,8.702-9.003l-0.323-24.956c0,0,0.503-9.485-9.476-10.604
				l-28.823-2.746c0,0-8.685-3.87-11.579-12.065c0,0-5.305-12.554,0.647-18.838l16.631-22.759c0,0,4.657-6.765,0.216-11.84
				l-21.99-21.132c0,0-5.484-2.746-9.08,0.85l-25.999,20.08c0,0-9.332,2.791-18.017-3.17c0,0-9.493-5.146-10.788-8.522
				c0,0-4.189-31.551-4.351-33.151c0,0-0.324-6.927-7.066-7.084l-28.337-0.162c0,0-6.114,0.97-6.742,5.799l-5.161,35.726
				c0,0-5.142,7.066-12.55,9.003c0,0-12.855,3.062-17.225,0.153l-23.482-17.53c0,0-6.438-5.956-12.227-0.639L505.98,314.81
				c0,0-4.028,4.176-0.18,9.493l19.472,25.726c0,0,6.581,7.263-1.942,20.606c0,0-4.028,10.783-16.901,12.074
				c-12.856,1.281-24.292,3.209-24.292,3.209s-6.923,0.337-7.084,7.565C474.893,400.729,476.673,422.296,476.673,422.296z
				 M564.111,405.484c0-29.991,24.309-54.319,54.319-54.319c29.991,0,54.319,24.328,54.319,54.319
				c0,29.996-24.328,54.309-54.319,54.309C588.42,459.794,564.111,435.48,564.111,405.484z"/>
			<path fill="#253147" d="M215.024,734.646c0,0,2.607,6.68,15.158,1.815l34.306-9.269c0,0,9.943-3.02,20.515,6.347
				c0,0,14.744,10.034,13.665,18.313l-9.565,48.43c0,0-3.111,8.164,6.203,13.45l38.406,14.582c0,0,10.698,1.034,13.539-7.732
				l16.703-30.521c0,0,5.538-13.315,23.447-12.433c0,0,18.088-1.618,24.417,8.091l21.9,36.482c0,0,3.974,9.278,15.751,3.758
				l34.019-14.492c0,0,9.529-6.284,6.616-14.789l-10.608-36.886c0,0-4.729-9.943,5.16-20.983c0,0,10.609-17.441,25.263-13.952
				l40.689,9.691c0,0,8.433,3.722,15.769-8.199l13.126-32.634c0,0,4.009-11.724-7.426-16.829l-33.677-19.509
				c0,0-9.385-4.297-8.864-21.342c0,0-2.553-19.14,9.494-25.748l33.066-20.192c0,0,10.86-4.873,6.221-16.29l-14.061-31.798
				c0,0-4.567-12.434-17.962-8.424l-38.406,12.236c0,0-13.252-0.189-21.451-9.125c0,0-13.665-13.179-9.476-24.471l8.864-38.285
				c0,0,2.266-11.202-6.203-15.278l-39.719-15.064c0,0-8.54-0.521-11.183,6.056l-22.332,39.938c0,0-10.428,8.699-24.831,5.817
				c0,0-14.977-1.42-18.465-5.039c0,0-22.601-38.136-23.699-40.105c0,0-4.189-8.694-12.945-5.206l-36.374,15.288
				c0,0-7.318,4.558-5.484,11.116l12.928,48.592c0,0-2.751,11.877-11.166,18.403c0,0-14.816,10.95-21.972,9.62l-39.701-9.638
				c0,0-11.489-4.118-16.02,5.861l-14.87,36.572c0,0-2.858,7.569,4.999,12.262l39.017,22.341c0,0,12.424,5.69,8.774,27.465
				c0,0,0.737,16.002-15.05,24.687c-15.786,8.693-29.38,17.423-29.38,17.423s-8.702,4.189-4.945,13.557
				C200.962,707.981,215.024,734.646,215.024,734.646z M317.907,665.296c-16.416-38.433,1.456-82.917,39.898-99.297
				c38.425-16.433,82.889,1.456,99.288,39.898c16.416,38.442-1.456,82.889-39.898,99.305S334.287,703.729,317.907,665.296z"/>
		</g>
	</g>
	<path fill="#87CEDB" d="M386.313,518.131c0,0-127.938-3.195-116.746,143.933C269.567,662.064,271.167,545.321,386.313,518.131z"/>
	<path fill="#87CEDB" d="M401.358,762.092c0,0,127.584-10.033,101.256-155.219C502.614,606.873,513.078,723.156,401.358,762.092z"/>
	<path opacity="0.5" d="M633.101,321.471c0,0-89.496-20.911-103.09,84.175C530.012,405.646,548.167,323.796,633.101,321.471z"/>
	<path opacity="0.5" d="M597.388,489.164c0,0,88.005,26.481,108.161-77.549C705.549,411.616,682.296,492.177,597.388,489.164z"/>
</g>
</svg>
